HIERARCHY
ROOT Hips
{
	OFFSET -14.64140 90.27770 -84.91600
	CHANNELS 6 Xposition Yposition Zposition Zrotation Xrotation Yrotation
	JOINT Spine
	{
		OFFSET 0.00000 13.20850 -1.60436
		CHANNELS 3 Zrotation Xrotation Yrotation
		JOINT Spine1
		{
			OFFSET 0.00000 8.61716 0.00000
			CHANNELS 3 Zrotation Xrotation Yrotation
			JOINT Spine2
			{
				OFFSET 0.00000 8.61717 0.00000
				CHANNELS 3 Zrotation Xrotation Yrotation
				JOINT Spine3
				{
					OFFSET 0.00000 8.61717 0.00000
					CHANNELS 3 Zrotation Xrotation Yrotation
					JOINT Neck
					{
						OFFSET 0.00000 11.07920 1.10792
						CHANNELS 3 Zrotation Xrotation Yrotation
						JOINT Neck1
						{
							OFFSET 0.00000 7.08032 0.00000
							CHANNELS 3 Zrotation Xrotation Yrotation
							JOINT Head
							{
								OFFSET 0.00000 7.08031 0.00000
								CHANNELS 3 Zrotation Xrotation Yrotation
								End site
								{
									OFFSET 0.00000 0.00000 0.00000
								}
							}
						}
					}
					JOINT RightShoulder
					{
						OFFSET -0.01000 7.91373 5.19711
						CHANNELS 3 Zrotation Xrotation Yrotation
						JOINT RightArm
						{
							OFFSET -18.41580 0.00000 0.00000
							CHANNELS 3 Zrotation Xrotation Yrotation
							JOINT RightForeArm
							{
								OFFSET -29.11090 0.00000 0.00000
								CHANNELS 3 Zrotation Xrotation Yrotation
								JOINT RightHand
								{
									OFFSET -24.65040 0.00000 0.00000
									CHANNELS 3 Zrotation Xrotation Yrotation
									JOINT RightHandThumb1
									{
										OFFSET -5.35114 -0.85590 3.97906
										CHANNELS 3 Zrotation Xrotation Yrotation
										JOINT RightHandThumb2
										{
											OFFSET -4.52789 0.00000 0.00000
											CHANNELS 3 Zrotation Xrotation Yrotation
											JOINT RightHandThumb3
											{
												OFFSET -2.46976 0.00000 0.00000
												CHANNELS 3 Zrotation Xrotation Yrotation
												End site
												{
													OFFSET 0.00000 0.00000 0.00000
												}
											}
										}
									}
									JOINT RightHandIndex1
									{
										OFFSET -14.26970 0.00000 2.88139
										CHANNELS 3 Zrotation Xrotation Yrotation
										JOINT RightHandIndex2
										{
											OFFSET -5.48836 0.00000 0.00000
											CHANNELS 3 Zrotation Xrotation Yrotation
											JOINT RightHandIndex3
											{
												OFFSET -3.01859 0.00000 0.00000
												CHANNELS 3 Zrotation Xrotation Yrotation
												End site
												{
													OFFSET 0.00000 0.00000 0.00000
												}
											}
										}
									}
									JOINT RightHandMiddle1
									{
										OFFSET -14.26970 0.00000 -0.09147
										CHANNELS 3 Zrotation Xrotation Yrotation
										JOINT RightHandMiddle2
										{
											OFFSET -6.17441 0.00000 0.00000
											CHANNELS 3 Zrotation Xrotation Yrotation
											JOINT RightHandMiddle3
											{
												OFFSET -3.56743 0.00000 0.00000
												CHANNELS 3 Zrotation Xrotation Yrotation
												End site
												{
													OFFSET 0.00000 0.00000 0.00000
												}
											}
										}
									}
									JOINT RightHandRing1
									{
										OFFSET -12.69180 0.00000 -3.06433
										CHANNELS 3 Zrotation Xrotation Yrotation
										JOINT RightHandRing2
										{
											OFFSET -5.62556 0.00000 0.00000
											CHANNELS 3 Zrotation Xrotation Yrotation
											JOINT RightHandRing3
											{
												OFFSET -3.56744 0.00000 0.00000
												CHANNELS 3 Zrotation Xrotation Yrotation
												End site
												{
													OFFSET 0.00000 0.00000 0.00000
												}
											}
										}
									}
									JOINT RightHandPinky1
									{
										OFFSET -11.11390 0.00000 -6.03719
										CHANNELS 3 Zrotation Xrotation Yrotation
										JOINT RightHandPinky2
										{
											OFFSET -4.52789 0.00000 0.00000
											CHANNELS 3 Zrotation Xrotation Yrotation
											JOINT RightHandPinky3
											{
												OFFSET -2.46976 0.00000 0.00000
												CHANNELS 3 Zrotation Xrotation Yrotation
												End site
												{
													OFFSET 0.00000 0.00000 0.00000
												}
											}
										}
									}
								}
							}
						}
					}
					JOINT LeftShoulder
					{
						OFFSET 0.01000 7.91373 5.19711
						CHANNELS 3 Zrotation Xrotation Yrotation
						JOINT LeftArm
						{
							OFFSET 18.41580 0.00000 0.00000
							CHANNELS 3 Zrotation Xrotation Yrotation
							JOINT LeftForeArm
							{
								OFFSET 29.11090 0.00000 0.00000
								CHANNELS 3 Zrotation Xrotation Yrotation
								JOINT LeftHand
								{
									OFFSET 24.65040 0.00000 0.00000
									CHANNELS 3 Zrotation Xrotation Yrotation
									JOINT LeftHandThumb1
									{
										OFFSET 5.35114 -0.85590 3.97906
										CHANNELS 3 Zrotation Xrotation Yrotation
										JOINT LeftHandThumb2
										{
											OFFSET 4.52789 0.00000 0.00000
											CHANNELS 3 Zrotation Xrotation Yrotation
											JOINT LeftHandThumb3
											{
												OFFSET 2.46977 0.00000 0.00000
												CHANNELS 3 Zrotation Xrotation Yrotation
												End site
												{
													OFFSET 0.00000 0.00000 0.00000
												}
											}
										}
									}
									JOINT LeftHandIndex1
									{
										OFFSET 14.26970 0.00000 2.88139
										CHANNELS 3 Zrotation Xrotation Yrotation
										JOINT LeftHandIndex2
										{
											OFFSET 5.48836 0.00000 0.00000
											CHANNELS 3 Zrotation Xrotation Yrotation
											JOINT LeftHandIndex3
											{
												OFFSET 3.01859 0.00000 0.00000
												CHANNELS 3 Zrotation Xrotation Yrotation
												End site
												{
													OFFSET 0.00000 0.00000 0.00000
												}
											}
										}
									}
									JOINT LeftHandMiddle1
									{
										OFFSET 14.26970 0.00000 -0.09147
										CHANNELS 3 Zrotation Xrotation Yrotation
										JOINT LeftHandMiddle2
										{
											OFFSET 6.17440 0.00000 0.00000
											CHANNELS 3 Zrotation Xrotation Yrotation
											JOINT LeftHandMiddle3
											{
												OFFSET 3.56744 0.00000 0.00000
												CHANNELS 3 Zrotation Xrotation Yrotation
												End site
												{
													OFFSET 0.00000 0.00000 0.00000
												}
											}
										}
									}
									JOINT LeftHandRing1
									{
										OFFSET 12.69180 0.00000 -3.06433
										CHANNELS 3 Zrotation Xrotation Yrotation
										JOINT LeftHandRing2
										{
											OFFSET 5.62556 0.00000 0.00000
											CHANNELS 3 Zrotation Xrotation Yrotation
											JOINT LeftHandRing3
											{
												OFFSET 3.56744 0.00000 0.00000
												CHANNELS 3 Zrotation Xrotation Yrotation
												End site
												{
													OFFSET 0.00000 0.00000 0.00000
												}
											}
										}
									}
									JOINT LeftHandPinky1
									{
										OFFSET 11.11390 0.00000 -6.03719
										CHANNELS 3 Zrotation Xrotation Yrotation
										JOINT LeftHandPinky2
										{
											OFFSET 4.52789 0.00000 0.00000
											CHANNELS 3 Zrotation Xrotation Yrotation
											JOINT LeftHandPinky3
											{
												OFFSET 2.46976 0.00000 0.00000
												CHANNELS 3 Zrotation Xrotation Yrotation
												End site
												{
													OFFSET 0.00000 0.00000 0.00000
												}
											}
										}
									}
								}
							}
						}
					}
					JOINT pCube4
					{
						OFFSET 0.00000 10.91090 1.10792
						CHANNELS 3 Zrotation Xrotation Yrotation
						End site
						{
							OFFSET 0.00000 0.00000 0.00000
						}
					}
				}
			}
		}
	}
	JOINT RightUpLeg
	{
		OFFSET -9.98441 0.00000 0.00000
		CHANNELS 3 Zrotation Xrotation Yrotation
		JOINT RightLeg
		{
			OFFSET 0.00000 -42.11790 0.00000
			CHANNELS 3 Zrotation Xrotation Yrotation
			JOINT RightFoot
			{
				OFFSET 0.00000 -45.00020 -0.00001
				CHANNELS 3 Zrotation Xrotation Yrotation
				JOINT RightForeFoot
				{
					OFFSET 0.00000 -3.74820 0.00000
					CHANNELS 3 Zrotation Xrotation Yrotation
					JOINT RightToeBase
					{
						OFFSET 0.00000 0.06325 14.43120
						CHANNELS 3 Zrotation Xrotation Yrotation
						End site
						{
							OFFSET 0.00000 0.00000 0.00000
						}
					}
				}
			}
		}
	}
	JOINT LeftUpLeg
	{
		OFFSET 9.98441 0.00000 0.00000
		CHANNELS 3 Zrotation Xrotation Yrotation
		JOINT LeftLeg
		{
			OFFSET 0.00000 -42.11800 0.00000
			CHANNELS 3 Zrotation Xrotation Yrotation
			JOINT LeftFoot
			{
				OFFSET 0.00000 -45.00070 0.00000
				CHANNELS 3 Zrotation Xrotation Yrotation
				JOINT LeftForeFoot
				{
					OFFSET 0.00000 -3.74824 0.00000
					CHANNELS 3 Zrotation Xrotation Yrotation
					JOINT LeftToeBase
					{
						OFFSET 0.00000 0.06325 14.43110
						CHANNELS 3 Zrotation Xrotation Yrotation
						End site
						{
							OFFSET 0.00000 0.00000 0.00000
						}
					}
				}
			}
		}
	}
}
MOTION
Frames: 4
Frame Time: 0.050000
-0.04889913817612823 -0.04553704534212524 -0.01800824036485625 -0.03401374817184368 0.006903421430880265 0.015715594119108955 -2.407597347096989 1.7959696507163405 -0.7719747405808591 -0.9729786681476736 3.6586101015534864 0.3975536899824282 -1.1667421307777706 -1.6380748188693253 -0.005554853623976008 -0.37064790370572304 0.021194611047417097 -0.6474728295574973 -0.1841289203721435 12.78566513666248 0.2229641694889981 -0.15691294389948757 0.15371715896072444 -2.1984380752304173 -0.18737910801715638 -14.510833721718765 -0.14215744206640368 -5.6309219616724615 2.1224828791806964 -13.168230368912937 61.87470757415043 0.31791221037017914 26.13655855294916 0.4698308181619924 -2.9771688292452936 99.27798523219974 9.833036224185962 -0.34797250003889946 -0.583679148913925 4.534047074555592 -0.10631240054191902 -1.5760965777126483 0.019677294287989498 -0.02528780079282621 -56.278963555258684 -0.0042759381834985 0.019526736404990426 -56.2719360795079 -38.725339083163924 -0.020801677272528966 -0.003794358292251037 0.035186969871210345 0.01604650051269644 0.009031616695889257 0.03632695449669663 -0.04869608923993792 0.000928004380231012 -36.72608021562072 -0.019394314499852836 0.005793452039751372 0.010239042062134485 0.03805908726597703 -0.0358340542642415 -0.005950507210158252 0.031882877519322506 -0.019815975454960968 -19.791999611491295 -0.02978850066537599 0.011348834238205964 0.03927909704079515 0.048248474051079196 -0.0011406945644969262 0.031437683181078126 0.030636839631768952 -0.03366860533786764 24.07662100082749 0.032195077608186455 -0.03034576677914712 28.85938619631118 -0.009081300935994676 0.03239977151656722 28.877503726833606 0.020426775004069517 0.028972507956140224 6.216502175305133 1.493001647161847 12.462270159472912 -63.72444052066249 13.642235229223452 -19.550645287723366 -3.624570655184385 -7.8334364105239835 -85.62111450773192 -3.4862900664555196 1.6206134150309826 -2.987194893336804 -0.42898424180862516 0.1114532560452774 -8.106437596883556 0.040457005508003456 -0.014591245335405897 44.540201641387895 0.011386386395737072 0.005030032302172233 44.57712797620411 12.463101606835279 0.019519576639448307 0.03700244567983933 -0.022655974275338647 0.023547049334542665 -0.03398821440724364 -0.013864730803223896 -0.028848008529408775 0.034670846602371394 11.084273204024289 0.02865793362502416 -0.049437165681214985 0.017804639801011 0.009194817652397819 0.014156901343290416 -0.0053580036036656 0.03997482458519355 -0.0344983797858657 4.7724226395281955 0.0028006689207445284 -0.02919126555288832 0.03245377988228419 0.025276972476484083 0.0018776857747032005 0.04122408976421951 -0.033068326198035784 0.016976790866299964 -5.578899397294536 -0.04223884135743937 -0.015847214224026292 -6.722545060127305 -0.04702537990035668 -0.04324489104040119 -6.727647121100228 -0.02951601674925938 0.029752123353344043 0.030539195845796403 0.0025537526715548845 -0.02941811534352506 8.009245402882739 3.533023957261411 -19.266675408925366 0.034026812836453556 10.41008416624765 -0.026452551699681758 -5.645173224422084 -15.617892524529593 3.190724961394648 -0.002503862634127616 0.0005284159028541866 -0.017939802533546326 -0.0012118270776223803 4.656814586266423 -0.02334367081533146 12.502391062724461 -8.245043283223234 6.924939825751881 -0.0227048362895216 46.38059090628791 0.028837993177001513 -4.302247291357337 -14.778368022711653 -3.8188758658472555 -0.0028759825897195566 0.020126222576027943 -0.013777378393259286 -0.024144521305244745 -10.711114566385456 0.014969765653841172 
0.014493202149924878 -0.04118694436185998 -0.03463063057816051 0.019428655039115856 0.003502502451877734 -0.033005390988377147 -2.5149439209334226 2.292920766435938 -0.7877101580174461 -0.9415585854678513 3.667106393899383 0.42413193945191685 -1.1472092362860005 -1.454510934004641 -0.10615414707961603 -0.38470772804706294 0.03591693561386519 -0.678886879486886 -0.2293205613931438 12.501496385965734 0.30229709439151364 -0.1922011834389883 0.07363787420846105 -2.148280441827572 -0.21504852979276892 -14.659963930165818 -0.07183699539240315 -5.000424768607262 1.9387567656597426 -12.878388220853392 61.96060343768312 0.7102915411809668 25.66483079488255 1.2269870884236123 -2.060959218498533 97.33931973034234 10.530385562291503 -0.2974838526329256 -1.0090138844960705 4.514332078588339 -0.10174271967615854 -1.5668336173576738 0.03727389346754029 -0.003408580874029422 -56.262543809378265 -0.030955768549558567 -0.015485367810885964 -56.20715670409584 -38.766028258178 -0.03633345535474037 0.008181935369807417 0.006737365568800422 -0.013853811950671016 -0.03668811205017218 0.03341034090146892 -0.022226275707908427 0.032072903597759404 -36.71442317797087 -0.00160517949103029 -0.03052310891714141 0.003239494144810291 -0.029220280725062702 -0.002981330941581357 0.014605913973240249 -0.005611154122996551 0.040136210428577235 -19.73745192950323 -0.004420364955445385 -0.022829557674217297 -0.035869557359586385 0.008465251959213212 0.01050552879224584 0.04239747193794017 0.0021337623536384818 0.010624814609475864 24.097896986610547 0.006327924540652808 0.004550313139383366 28.8426542249424 0.04316607507781066 -0.023474024945204817 28.877423611291164 -0.018672678540648066 -0.02879897038511 5.791776920899093 1.5077700715838218 12.320527493074092 -62.869463299658854 13.48147067898464 -20.807302792137783 -3.888074986814279 -6.796636986870791 -86.6622001075371 -4.103412743031544 1.5697680498998312 -3.0373453467747638 -0.429386251700393 0.020891674592151903 -8.139906015514084 -0.038337809833903426 -0.006889841215502007 44.58471415877504 0.04658145471109077 0.015316435006255354 44.563134493650516 12.459743301415013 0.012958431647089501 -0.017815364957777566 -0.03823714374520231 0.02925357043637093 -0.008432970672778466 -0.009212731328665796 0.04475904132166849 0.01892056316572998 11.15413681325569 0.024484416922703298 -0.04765946834563204 0.048075641374100225 0.01103056394704334 0.03108147187832597 -0.02060829455364558 0.007852308336633198 0.036481077144111695 4.765600130726354 0.03924346264588797 0.04675256508653203 -0.0067816911140364 -0.025819873342392635 -0.009485872254718954 0.010510587328038529 0.0009564976746689375 -0.02633947698471124 -5.649399235950051 -0.024090118713450938 0.015795910035922105 -6.700272674205986 -0.022799653822516783 0.016907649542706765 -6.6893189624031155 0.0462276769621645 -0.03574769485997565 -0.010034832913523226 0.0023589224403258364 -0.00490253039121659 8.009324371167367 3.522171774887583 -19.266555306467026 -0.029601502731599526 10.390991365544398 0.009264098122473101 -5.605726608438566 -15.627111698101427 3.227157588000992 -0.01806516009606679 0.044141995904004555 0.009697326686818513 -0.02665567692230984 4.7048342452272465 -0.034270300624633224 12.467571129223021 -8.211882081547017 6.907380157501916 0.03504447537328858 46.429325602911845 0.023152218735216015 -4.347887407277397 -14.735845603936129 -3.793954604257003 -0.012154668971833848 -0.02514688518734843 -0.04195665413323321 0.013721850442083983 -10.722188281748258 -0.020381944790157615 
0.004647705615517378 0.029010229004737112 -0.0035392795014636026 -0.005064574364763216 -0.034910872606431304 -0.04242545808078144 -2.823336239246549 2.924258793783832 -0.753587311945607 -0.9552879245639443 3.6845754809796496 0.39980432039251634 -1.1517044227022224 -1.2360681599051297 -0.19948857396891342 -0.29791731033574054 0.08180627943872773 -0.7553670800454331 -0.3633573138131405 12.10834154516546 0.2636705500978521 -0.25104429876697526 -0.13595299315777515 -2.2593496656330356 -0.2457317556899446 -14.801894204593493 -0.10360365438473071 -4.048371459761355 1.718454107326305 -12.626719371293463 62.062949886293566 1.9605263648419826 24.89105739242993 1.728114345542039 -1.1455554137076993 94.8088936377536 11.4813532531284 -0.38235178421079985 -1.7545994157179314 4.536485181305213 -0.12508036068713874 -1.624025845422406 0.02334701106937659 -0.026732557169767746 -56.21856568453688 -0.016996070380454174 -0.03440018489249035 -56.230298953928674 -38.77744512933364 -0.008882687000170518 -0.0007921698357252545 0.02016619555255532 0.016716982112119794 -0.034223139165424445 -0.033057545801908526 -0.03606656582509658 -0.0013767324455126022 -36.67832824245944 0.006557221885220101 -0.0019223140574452231 -0.028081030829583072 0.01776117326953873 0.001471136999771998 0.017559020041888442 -0.015756549494170994 0.019566695638833887 -19.735295561020315 -0.035388070860120587 0.019335933713465318 0.04045634410124753 0.02705534563121481 0.0037630679026739076 -0.04761178790866662 0.042240582630907374 -0.01074372993332718 24.094411479649978 -0.011992327353586804 0.009877171124572379 28.87601461208744 0.019809701850344308 0.04550746049877179 28.88728138755902 0.03386196474212845 0.03675670175696606 5.109094267750473 1.3523943601825086 12.1321113220122 -62.087930397550195 14.116778845600793 -21.44868764985897 -3.356881851322217 -6.026603212118903 -86.62546377779475 -4.8582624786447886 1.5003780244978517 -2.7782083816281484 -0.4711116200299821 0.07283457180346839 -8.131065227117393 -0.020496820586477647 -0.026152366757302054 44.56478787623441 0.017247109115678668 0.02356404776256946 44.592119158262165 12.443063958768516 0.01381723730999629 -0.04883861150148137 0.028251116409175457 -0.04385658900678073 0.019115653774791463 -0.040082288880925264 -0.0493250748806398 -0.012593805167391323 11.09958924142151 0.04947702579561733 -0.022528673690598525 0.03132560415618514 0.031563305627864156 0.03048621174487265 -0.013551679151507881 -0.018159010826374333 -0.010905862379685539 4.756167467190327 -0.042890538846419274 -0.0008895680988364852 -0.014462845378422521 -0.0034152766524793623 0.03864145204395038 -0.009317536021173895 0.03602888386340566 -0.04995739097228857 -5.625929235075634 0.028738676329923343 -0.01970346571031154 -6.692550996999737 0.016859336291715266 0.014253945319461371 -6.6725331217478105 0.03917907218299115 0.030740268593214513 -0.04225533023892356 -0.0168203317506496 0.024308613371138467 8.089010398058594 3.492522520985372 -19.254474148852868 0.03411358978404581 10.415669538647425 0.037928084801099826 -5.617185582799065 -15.672564927870347 3.230196996154593 0.01290107802665798 0.018526475707544836 0.022038116086231206 -0.04796344361282418 4.713627808173606 0.00032219292648401826 12.433838026962308 -8.239847782348216 6.900680768107293 -0.028521529760368723 46.364496621754746 -0.004835422126343559 -4.3409677526299415 -14.779727491765577 -3.804793976658642 0.0439631734427665 -0.0053911509413774655 0.04143890225124049 0.04062937879558305 -10.78625072580699 -0.04586101340442509 
0.014301279126148661 0.0005524338549770479 -0.016591821288240362 -0.03045925010448214 -0.019470984555556594 -0.0439133136662511 -3.2409472010680065 3.7456842076625967 -0.6266396306549893 -0.994149184080426 3.701797585484998 0.46391527238099073 -1.1041064995679712 -0.9553772322809835 -0.2725630889251859 -0.24511592671582821 0.26061863302950716 -0.822123328674903 -0.3695285346408018 11.594643380954777 0.2098474815149784 -0.38910976767719885 -0.3019937657102357 -2.5853250904395177 -0.24702406997731077 -14.945843542724234 -0.16904419757591782 -2.9943345875798535 1.439284786425015 -12.322198545785339 61.830567903366585 3.30673296230891 24.632836701549216 1.8484438703169273 -0.11844015602936624 92.33422289459781 12.712468949307965 -0.394535074922761 -2.5131843555197033 4.574333402900301 -0.171826845468659 -1.5869044185522472 0.03482027480239468 -0.0020777585714427177 -56.19767582010878 -0.03714580150540727 -0.020788110597510408 -56.23045034956094 -38.79977771783807 -0.00815442652286034 -0.04636057520058492 -0.0479635238507939 -0.033068344532295534 0.02807476518266575 0.026842184785033467 0.03328872667358264 0.024730657491530222 -36.717608766283576 0.005906119947999446 0.013043769273834212 -0.041719208499643945 -0.004292764075329038 -0.03528116044877857 -0.006044682059200054 0.019587754290197955 0.01790457472525153 -19.73348223991921 -0.04424949322636784 0.02135300964282762 -0.011795355853751719 -0.032463345475807544 0.027038679087690316 0.00787583573633002 0.03867514501906244 -0.00619591794922089 24.05765863025339 -0.04196180917747097 -0.029650816692591377 28.87306807887677 0.04192641919412315 0.003910110571087338 28.862724614000275 0.02114125473338682 0.018849974364398708 3.9446723382021935 1.1552123109079162 11.840110401295773 -60.905903562280876 15.05717164758269 -21.822330196859266 -2.4321594413472583 -5.58742640252441 -85.61677246560713 -5.728665907142946 1.5094287296269022 -2.517181335604686 -0.4791341621827186 0.07492016560201985 -8.159931403861103 0.011937419087981254 -0.0062427246136386606 44.557394436880266 -0.017146498899061786 0.03615481658847469 44.61348028704729 12.433053129208954 -0.013095297606419929 0.036626534388684864 -0.005012859738824008 -0.037675451643661824 0.006735997316561744 -0.03190750085290559 0.02195282667433756 -0.040798215261502895 11.088947219022252 -0.02863571040719504 -0.029311158747446137 -0.020122075598804412 0.005071644472212405 -0.0036811558820892504 -0.04824723020897273 -0.009429162883803254 -0.010715950754265595 4.733407563944235 0.011566439181928347 0.02840351638002175 0.03429590288504529 0.023831979188122483 0.019081738072683152 0.006286549866834093 0.011024784022770292 -0.033212283838515134 -5.567267960928224 -0.015845679231948392 0.0008467128001977545 -6.730153799401863 0.03881567199290041 -0.036606420288712714 -6.68545866558164 -0.027675221256366796 0.007931979203846494 0.03950820768795948 0.039166679327191666 -0.03484057609698175 8.050956296909147 3.5428800195109207 -19.227568771273834 -0.0016098089517593715 10.440641034860295 0.05394223651939538 -5.628269671856656 -15.627450740127955 3.195414674287814 0.026095500975510773 0.04638915698678477 0.027959964828225513 0.01672243119343609 4.695328564972469 -0.034253905510959345 12.459483717708887 -8.233002690281376 6.898277922615701 -0.03315369336621488 46.377533673042755 0.023435739671174214 -4.364689194540983 -14.759183028854327 -3.7987905021247923 0.012296789829396885 0.0475377560812151 -0.019387328451132797 -0.00914984903970511 -10.713613245438546 0.015716540925077925 
